<?xml version="1.0" encoding="utf-8"?>
<!-- Generator: Adobe Illustrator 19.0.0, SVG Export Plug-In . SVG Version: 6.00 Build 0)  -->
<!DOCTYPE svg PUBLIC "-//W3C//DTD SVG 1.1//EN" "http://www.w3.org/Graphics/SVG/1.1/DTD/svg11.dtd">
<svg version="1.1" id="Layer_1" xmlns="http://www.w3.org/2000/svg" xmlns:xlink="http://www.w3.org/1999/xlink" x="0px" y="0px"
	 viewBox="0 0 720 499.4" style="enable-background:new 0 0 720 499.4;" xml:space="preserve">
<style type="text/css">
	.st0{fill:#27AAE1;stroke:#27AAE1;stroke-width:3.6629;}
</style>
<path class="st0" d="M215.6,54.1L102.9,350h-4.1L46.2,215.5h3.6l50.9,129.6h0.4L211.8,54.1H215.6z"/>
<path class="st0" d="M154.6,320.5c1.4,5.6,3.7,10.5,6.7,14.6c3,4.1,6.9,7.4,11.7,9.8c4.8,2.4,10.6,3.6,17.5,3.6
	c10.2,0,18.6-2.7,25.3-8c6.7-5.3,10.9-13.3,12.5-24h3.8c-1.4,11.3-5.8,20.1-13.4,26.3c-7.5,6.2-16.8,9.3-27.9,9.3
	c-7.5,0.1-14-1.1-19.3-3.6c-5.3-2.5-9.7-6.1-13.1-10.6c-3.4-4.6-5.9-10-7.5-16.2c-1.6-6.2-2.4-12.9-2.4-20.1c0-8,1.2-15.2,3.6-21.5
	c2.4-6.3,5.5-11.6,9.4-15.9c3.9-4.3,8.4-7.6,13.6-9.9c5.1-2.3,10.4-3.4,15.8-3.4c7.5,0,14,1.4,19.5,4.3c5.5,2.9,9.9,6.7,13.4,11.5
	c3.5,4.8,6,10.2,7.5,16.4c1.6,6.2,2.2,12.6,2,19.2h-81C152.4,308.8,153.2,314.9,154.6,320.5z M227,281.7c-1.6-5.3-4-10-7.3-14
	c-3.2-4-7.2-7.2-12-9.5c-4.8-2.3-10.3-3.5-16.6-3.5c-5.3,0-10.2,1-14.8,3c-4.6,2-8.6,4.9-12.1,8.8c-3.5,3.8-6.3,8.4-8.4,13.8
	c-2.1,5.4-3.4,11.5-3.8,18.3h77.2C229.5,292.6,228.7,287,227,281.7z"/>
<path class="st0" d="M248.3,350v-96.8h3.8v23.9h0.4c0.9-3.6,2.3-7.1,4.1-10.3c1.9-3.2,4.4-6,7.5-8.4c3.1-2.4,6.9-4.3,11.2-5.6
	c4.3-1.4,9.4-2,15.2-1.9v3.8c-6.7-0.4-12.4,0.5-17.2,2.7c-4.8,2.2-8.8,5.2-12,9c-3.1,3.8-5.5,8.3-7,13.3c-1.5,5-2.3,10.2-2.3,15.4
	V350H248.3z"/>
<path class="st0" d="M308.1,350v-96.8h3.8V350H308.1z"/>
<g>
	<path d="M395.1,267.5c-4.4-4.1-10.5-6.2-18.5-6.2c-5.7,0-10.6,1.2-14.9,3.6c-4.3,2.4-7.8,5.5-10.6,9.4c-2.8,3.9-5,8.3-6.4,13.3
		c-1.4,5-2.2,10-2.2,15.2c0,5.2,0.7,10.2,2.2,15.2c1.4,5,3.6,9.4,6.4,13.3c2.8,3.9,6.4,7,10.6,9.4c4.3,2.4,9.2,3.6,14.9,3.6
		c3.6,0,7.1-0.7,10.4-2.1c3.3-1.4,6.2-3.3,8.7-5.7c2.5-2.4,4.6-5.4,6.2-8.8c1.6-3.4,2.6-7.1,3-11.1h11.9c-1.6,11.8-6,21-13,27.6
		c-7,6.6-16.1,9.9-27.1,9.9c-7.4,0-14-1.4-19.7-4c-5.7-2.7-10.5-6.4-14.4-11c-3.9-4.6-6.8-10.1-8.9-16.3c-2-6.2-3-12.8-3-19.9
		c0-7,1-13.7,3-19.9c2-6.2,5-11.6,8.9-16.3c3.9-4.6,8.7-8.3,14.4-11.1c5.7-2.8,12.3-4.1,19.7-4.1c10.4,0,19.2,2.8,26.5,8.3
		c7.2,5.5,11.5,13.9,12.9,25.1h-11.9C402.5,277.4,399.5,271.7,395.1,267.5z"/>
	<path d="M444.2,254.2V277h0.4c3-7.9,7.7-14,14-18.3c6.3-4.3,13.9-6.2,22.7-5.8v11.9c-5.4-0.2-10.3,0.5-14.7,2.2
		c-4.4,1.7-8.2,4.1-11.4,7.3c-3.2,3.1-5.7,6.9-7.4,11.2c-1.8,4.3-2.6,9.1-2.6,14.2v51.8h-11.9v-97.2H444.2z"/>
	<path d="M498,319.2c1.2,4.6,3.1,8.7,5.7,12.3c2.6,3.6,6,6.7,10,9c4,2.4,8.9,3.6,14.5,3.6c8.7,0,15.4-2.3,20.3-6.8
		c4.9-4.5,8.3-10.5,10.2-18.1h11.9c-2.5,11.1-7.1,19.6-13.8,25.6c-6.7,6-16.2,9-28.5,9c-7.7,0-14.3-1.4-19.9-4
		c-5.6-2.7-10.1-6.4-13.7-11.1c-3.5-4.7-6.1-10.2-7.8-16.4s-2.5-12.8-2.5-19.7c0-6.4,0.8-12.7,2.5-18.8c1.7-6.2,4.3-11.6,7.8-16.5
		c3.5-4.8,8.1-8.7,13.7-11.7c5.6-2.9,12.2-4.4,19.9-4.4c7.8,0,14.4,1.6,20,4.7c5.5,3.1,10,7.3,13.5,12.3c3.5,5.1,5.9,10.9,7.4,17.5
		c1.5,6.6,2.1,13.3,1.9,20.1h-74.8C496.2,310.2,496.8,314.7,498,319.2z M556.8,283c-1.4-4.1-3.5-7.8-6.1-11
		c-2.6-3.2-5.8-5.8-9.6-7.7c-3.8-1.9-8-2.9-12.8-2.9c-4.9,0-9.2,1-13,2.9c-3.8,1.9-7,4.5-9.6,7.7c-2.6,3.2-4.7,6.9-6.3,11.1
		c-1.6,4.2-2.6,8.5-3.1,12.9h62.9C559,291.5,558.2,287.1,556.8,283z"/>
	<path d="M661.6,351.4v-18.5h-0.4c-1.3,3.1-3.1,6-5.6,8.7c-2.4,2.6-5.2,4.9-8.4,6.7c-3.1,1.8-6.5,3.2-10.1,4.2
		c-3.6,1-7.1,1.5-10.6,1.5c-7.4,0-13.8-1.4-19.3-4c-5.5-2.7-10-6.4-13.7-11.1c-3.6-4.7-6.3-10.2-8.1-16.4
		c-1.8-6.2-2.6-12.8-2.6-19.7c0-6.9,0.9-13.5,2.6-19.7c1.8-6.2,4.5-11.7,8.1-16.4c3.6-4.7,8.2-8.4,13.7-11.2
		c5.5-2.8,11.9-4.1,19.3-4.1c3.6,0,7.2,0.4,10.6,1.3c3.5,0.9,6.7,2.2,9.7,4c3,1.8,5.7,4,8,6.7c2.3,2.6,4.1,5.7,5.4,9.2h0.4v-55.8
		h11.9v134.5H661.6z M596.5,317.7c1.2,5,3.1,9.4,5.7,13.3c2.6,3.9,5.9,7.1,9.9,9.5c4,2.4,8.9,3.7,14.5,3.7c6.3,0,11.6-1.2,15.9-3.7
		c4.3-2.4,7.8-5.6,10.5-9.5c2.7-3.9,4.6-8.3,5.8-13.3c1.2-5,1.8-10,1.8-15c0-5-0.6-10-1.8-15c-1.2-5-3.1-9.4-5.8-13.3
		c-2.7-3.9-6.2-7.1-10.5-9.5c-4.3-2.4-9.6-3.7-15.9-3.7c-5.7,0-10.5,1.2-14.5,3.7c-4,2.4-7.3,5.6-9.9,9.5c-2.6,3.9-4.5,8.3-5.7,13.3
		c-1.2,5-1.8,10-1.8,15C594.7,307.8,595.3,312.8,596.5,317.7z"/>
</g>
</svg>
